<?xml version="1.0" encoding="UTF-8"?>
<svg xmlns="http://www.w3.org/2000/svg" version="1.1" viewBox="0 0 107 33">
  <defs>
    <style>
      .cls-1 {
        fill: #282642;
        stroke: #282642;
      }

      .cls-1, .cls-2 {
        stroke-miterlimit: 10;
        stroke-width: .2px;
      }

      .cls-2 {
        fill: #ff4c60;
        stroke: #ff4c60;
      }
    </style>
  </defs>
  <!-- Generator: Adobe Illustrator 28.6.0, SVG Export Plug-In . SVG Version: 1.2.0 Build 709)  -->
  <g>
    <g id="Layer_1">
      <g>
        <path class="cls-1" d="M9.9,12.8c-.9.9-2.1,1.3-3.6,1.3s-3.2-.6-4.3-1.7c-1-1.2-1.5-2.8-1.5-4.8s.6-3.9,1.8-5.1c1-1,2.3-1.5,3.9-1.5s3.7.7,4.6,2.1c.5.8.8,1.6.9,2.3h-2.6c-.2-.6-.4-1.1-.7-1.4-.5-.5-1.2-.8-2.1-.8s-1.7.4-2.3,1.2-.8,1.9-.8,3.3.3,2.5.9,3.2,1.3,1.1,2.2,1.1,1.6-.3,2.1-.9c.3-.3.5-.8.7-1.5h2.6c-.2,1.4-.8,2.5-1.7,3.3Z"/>
        <path class="cls-1" d="M21.1,5.7c.8,1,1.2,2.1,1.2,3.5s-.4,2.5-1.2,3.5-2,1.4-3.6,1.4-2.8-.5-3.6-1.4-1.2-2.1-1.2-3.5.4-2.5,1.2-3.5,2-1.5,3.6-1.5,2.8.5,3.6,1.5ZM17.6,6.3c-.7,0-1.3.3-1.6.8s-.6,1.2-.6,2.1.2,1.6.6,2.2.9.8,1.6.8,1.3-.3,1.6-.8.6-1.2.6-2.2-.2-1.6-.6-2.1-.9-.8-1.6-.8Z"/>
        <path class="cls-1" d="M30,12.5s0,.1-.2.3-.2.3-.3.4c-.4.3-.7.6-1.1.7s-.8.2-1.2.2c-1.4,0-2.3-.5-2.8-1.5-.3-.5-.4-1.3-.4-2.4v-5.6h2.5v5.6c0,.5,0,.9.2,1.2.2.5.7.7,1.3.7s1.4-.3,1.7-1c.2-.4.2-.8.2-1.4v-5h2.5v9.3h-2.4v-1.3Z"/>
        <path class="cls-1" d="M39.3,6.7c-1,0-1.6.3-2,1-.2.4-.3.9-.3,1.6v4.4h-2.4V4.5h2.3v1.6c.4-.6.7-1,1-1.3.5-.4,1-.6,1.8-.6s0,0,.1,0,.1,0,.2,0v2.5c-.2,0-.3,0-.4,0s-.2,0-.3,0Z"/>
        <path class="cls-1" d="M45.7,12v1.8h-1.1c-1.1,0-1.9-.1-2.3-.6-.3-.3-.4-.7-.4-1.3v-5.7h-1.3v-1.7h1.3v-2.6h2.4v2.6h1.5v1.7h-1.5v4.9c0,.4,0,.6.1.7s.4.1.9.1.2,0,.2,0,.2,0,.2,0Z"/>
        <path class="cls-1" d="M51.6,6.3c-.8,0-1.4.3-1.7,1-.2.4-.2.8-.2,1.4v5h-2.4V4.5h2.3v1.4c.3-.5.6-.8.9-1,.5-.4,1.1-.6,1.9-.6s1.7.3,2.4.8.9,1.3.9,2.5v6.2h-2.5v-5.6c0-.5,0-.9-.2-1.1-.2-.5-.7-.7-1.4-.7Z"/>
        <path class="cls-1" d="M65.8,11.1c0,.5-.3,1.1-.9,1.7-.8.9-1.9,1.4-3.3,1.4s-2.2-.4-3.1-1.1-1.4-2-1.4-3.7.4-2.8,1.2-3.7,1.9-1.3,3.2-1.3,1.5.1,2.1.4,1.1.7,1.5,1.4c.4.5.6,1.2.7,1.9,0,.4,0,1,0,1.8h-6.3c0,.9.3,1.6.9,2,.3.2.7.3,1.2.3s.9-.1,1.2-.4c.2-.2.3-.4.5-.6h2.5ZM63.4,8.2c0-.6-.2-1.1-.6-1.5s-.8-.5-1.3-.5-1,.2-1.3.5-.5.8-.6,1.4h3.8Z"/>
        <path class="cls-1" d="M71.4,11.3l1.9-6.8h2.6l-3.2,9.1c-.6,1.8-1.1,2.8-1.5,3.3s-1.1.6-2.1.6-.4,0-.5,0-.3,0-.6,0v-1.9h.3c.2,0,.5,0,.7,0s.4,0,.5-.2c.1,0,.3-.3.4-.6s.2-.5.1-.6l-3.4-9.7h2.7l2,6.8Z"/>
        <path class="cls-1" d="M8.7,30.9c-.7.4-1.5.6-2.6.6-1.7,0-3-.6-4.1-1.7-1.1-1.2-1.7-2.7-1.7-4.7s.6-3.7,1.7-4.9,2.6-1.8,4.4-1.8,2.9.4,3.8,1.2,1.5,1.8,1.7,3h-2.6c-.2-.9-.7-1.5-1.5-1.8-.4-.2-.9-.3-1.4-.3-1,0-1.8.4-2.5,1.1s-1,1.9-1,3.4.4,2.6,1.1,3.3,1.5,1,2.4,1,1.6-.3,2.2-.8.9-1.2,1-2h-2.9v-2.1h5.2v6.7h-1.7l-.3-1.6c-.5.6-1,1-1.4,1.3Z"/>
        <path class="cls-1" d="M22.3,28.5c0,.5-.3,1.1-.9,1.7-.8.9-1.9,1.4-3.3,1.4s-2.2-.4-3.1-1.1-1.4-2-1.4-3.7.4-2.8,1.2-3.7,1.9-1.3,3.2-1.3,1.5.1,2.1.4,1.1.7,1.5,1.4c.4.5.6,1.2.7,1.9,0,.4,0,1,0,1.8h-6.3c0,.9.3,1.6.9,2,.3.2.7.3,1.2.3s.9-.1,1.2-.4c.2-.2.3-.4.5-.6h2.5ZM19.9,25.6c0-.6-.2-1.1-.6-1.5s-.8-.5-1.3-.5-1,.2-1.3.5-.5.8-.6,1.4h3.8Z"/>
        <path class="cls-1" d="M28.7,24.2c-1,0-1.6.3-2,1-.2.4-.3.9-.3,1.6v4.4h-2.4v-9.3h2.3v1.6c.4-.6.7-1,1-1.3.5-.4,1-.6,1.8-.6s0,0,.1,0,.1,0,.2,0v2.5c-.2,0-.3,0-.4,0s-.2,0-.3,0Z"/>
        <path class="cls-1" d="M29.9,21.9h2.7l1.9,6.8,2-6.8h2.6l-3.3,9.3h-2.6l-3.3-9.3Z"/>
        <path class="cls-1" d="M48.5,28.5c0,.5-.3,1.1-.9,1.7-.8.9-1.9,1.4-3.3,1.4s-2.2-.4-3.1-1.1-1.4-2-1.4-3.7.4-2.8,1.2-3.7,1.9-1.3,3.2-1.3,1.5.1,2.1.4,1.1.7,1.5,1.4c.4.5.6,1.2.7,1.9,0,.4,0,1,0,1.8h-6.3c0,.9.3,1.6.9,2,.3.2.7.3,1.2.3s.9-.1,1.2-.4c.2-.2.3-.4.5-.6h2.5ZM46.1,25.6c0-.6-.2-1.1-.6-1.5s-.8-.5-1.3-.5-1,.2-1.3.5-.5.8-.6,1.4h3.8Z"/>
        <path class="cls-1" d="M54.9,24.2c-1,0-1.6.3-2,1-.2.4-.3.9-.3,1.6v4.4h-2.4v-9.3h2.3v1.6c.4-.6.7-1,1-1.3.5-.4,1-.6,1.8-.6s0,0,.1,0,.1,0,.2,0v2.5c-.2,0-.3,0-.4,0s-.2,0-.3,0Z"/>
        <path class="cls-2" d="M64.2,28.2h-1.8v3h-1.7v-8.4h3.6c.8,0,1.5.2,2,.6s.7,1.1.7,2-.2,1.7-.7,2.1-1.2.6-2.1.6ZM65,26.4c.2-.2.3-.5.3-1s-.1-.7-.3-.9c-.2-.2-.5-.3-1-.3h-1.6v2.5h1.6c.4,0,.7,0,1-.3Z"/>
        <path class="cls-2" d="M73.9,27.6v3.6h-1.6v-3.8c0-.3,0-.6-.2-.8-.1-.3-.4-.4-.8-.4s-.8.1-1,.4c-.2.3-.3.7-.3,1.2v3.3h-1.6v-8.3h1.6v3c.2-.4.5-.6.8-.8s.6-.2,1-.2.7,0,1,.2c.3.1.6.3.8.6.2.2.3.5.3.7s0,.6,0,1.2Z"/>
        <path class="cls-2" d="M75.3,29.5h1.7v1.7h-1.7v-1.7Z"/>
        <path class="cls-2" d="M82.3,31.2h-3.6v-8.4h3.6c.5,0,.9,0,1.3.2.6.2,1.1.5,1.4,1.1.3.4.5.9.6,1.3.1.5.2.9.2,1.4,0,1.1-.2,2.1-.7,2.8-.6,1-1.5,1.6-2.8,1.6ZM83.6,25c-.3-.5-.8-.7-1.6-.7h-1.6v5.5h1.6c.8,0,1.4-.4,1.7-1.2.2-.4.3-1,.3-1.6s-.1-1.5-.4-2Z"/>
        <path class="cls-2" d="M86.9,29.5h1.7v1.7h-1.7v-1.7Z"/>
      </g>
    </g>
  </g>
</svg>